<svg id="svg" version="1.1" xmlns="http://www.w3.org/2000/svg" xmlns:xlink="http://www.w3.org/1999/xlink" width="400" height="400" viewBox="0, 0, 400,400"><g id="svgg"><path id="path0" d="M73.882 63.193 L 57.564 63.400 60.320 67.200 C 61.836 69.290,66.762 76.130,71.267 82.400 C 75.771 88.670,84.830 101.270,91.398 110.400 C 144.882 184.750,160.499 206.943,159.945 207.811 C 159.445 208.592,141.417 232.326,135.800 239.597 C 134.480 241.306,130.395 246.640,126.722 251.452 C 123.048 256.263,115.983 265.510,111.022 272.000 C 106.060 278.490,102.000 284.009,102.000 284.265 C 102.000 285.796,116.305 294.290,117.227 293.307 C 117.592 292.918,124.122 284.320,131.739 274.200 C 139.355 264.080,149.775 250.299,154.894 243.575 C 167.308 227.267,185.789 202.942,196.930 188.248 L 205.992 176.296 204.658 174.448 C 203.925 173.432,201.165 169.630,198.524 166.000 C 195.883 162.370,189.615 153.730,184.594 146.800 C 179.573 139.870,172.200 129.700,168.210 124.200 C 164.220 118.700,157.377 109.250,153.004 103.200 C 148.631 97.150,142.511 88.690,139.405 84.400 C 136.298 80.110,131.914 74.045,129.663 70.922 C 123.630 62.556,125.593 63.380,110.947 63.066 C 104.156 62.921,96.710 62.843,94.400 62.894 C 92.090 62.945,82.857 63.080,73.882 63.193 M300.325 63.163 L 298.449 63.400 291.558 72.400 C 287.768 77.350,282.679 84.010,280.250 87.200 C 277.821 90.390,272.578 97.230,268.600 102.400 C 264.621 107.570,259.582 114.140,257.402 117.000 C 243.383 135.391,194.869 198.776,181.720 215.882 C 178.134 220.547,175.200 224.547,175.200 224.770 C 175.200 224.994,178.160 229.277,181.777 234.288 C 185.394 239.300,192.045 248.530,196.556 254.800 C 201.067 261.070,207.157 269.530,210.090 273.600 C 213.023 277.670,220.139 287.570,225.904 295.600 C 231.668 303.630,236.703 310.603,237.093 311.095 L 237.800 311.990 244.197 310.558 C 258.834 307.281,269.890 303.388,284.114 296.501 C 288.003 294.618,290.385 293.244,290.314 292.923 C 290.194 292.374,284.729 284.671,245.248 229.400 C 231.734 210.480,220.674 194.805,220.671 194.567 C 220.669 194.329,227.042 185.810,234.833 175.635 C 242.625 165.460,251.079 154.405,253.620 151.068 C 256.161 147.730,261.210 141.130,264.840 136.400 C 270.994 128.382,275.690 122.230,308.123 79.703 C 314.876 70.849,320.400 63.424,320.400 63.203 C 320.400 62.769,303.699 62.736,300.325 63.163 M325.000 167.566 C 321.168 168.298,318.419 169.660,314.457 172.793 C 311.861 174.845,311.870 174.848,312.201 171.990 C 312.589 168.645,312.312 168.400,308.148 168.400 L 304.794 168.400 304.897 191.495 C 304.997 213.841,305.025 214.594,305.762 214.736 C 306.181 214.816,307.846 214.759,309.462 214.607 L 312.400 214.332 312.403 201.666 C 312.407 187.116,312.722 183.316,314.163 180.472 C 316.729 175.409,322.903 172.802,328.952 174.228 C 332.637 175.096,332.648 175.087,332.106 171.580 C 331.331 166.574,331.043 166.412,325.000 167.566 M269.000 168.139 C 266.360 169.015,263.371 170.686,261.019 172.602 C 259.799 173.596,258.786 174.272,258.770 174.105 C 258.753 173.937,258.765 172.578,258.797 171.084 L 258.855 168.368 255.327 168.484 L 251.800 168.600 251.800 200.200 L 251.800 231.800 255.200 231.800 L 258.600 231.800 258.706 220.300 C 258.765 213.975,258.915 208.800,259.042 208.800 C 259.168 208.800,260.200 209.616,261.335 210.613 C 279.323 226.412,300.818 201.359,289.298 178.022 C 285.392 170.111,276.342 165.704,269.000 168.139 M349.923 168.009 C 348.671 168.205,346.027 168.746,344.048 169.210 L 340.451 170.055 340.200 172.327 C 340.063 173.577,339.861 175.078,339.752 175.662 C 339.452 177.265,340.043 177.318,343.467 175.997 C 356.266 171.059,365.474 173.592,368.013 182.749 C 368.961 186.167,369.246 185.998,362.476 186.010 C 356.256 186.021,350.177 186.491,346.204 187.267 C 342.391 188.013,337.482 193.028,336.843 196.833 C 333.920 214.216,352.687 222.102,366.747 209.400 L 368.370 207.934 368.334 210.983 C 368.291 214.670,368.013 214.380,371.714 214.501 L 374.760 214.600 375.007 201.600 C 375.380 181.952,374.579 177.286,370.060 172.793 C 365.520 168.278,358.640 166.644,349.923 168.009 M276.247 174.721 C 287.037 180.231,286.960 203.634,276.136 208.463 C 267.094 212.497,258.762 204.575,258.647 191.836 C 258.529 178.676,267.296 170.150,276.247 174.721 M368.251 194.132 C 367.352 202.904,363.720 207.446,356.000 209.450 L 353.400 210.126 350.208 208.647 C 344.469 205.987,342.678 202.970,344.073 198.314 C 345.562 193.345,349.853 191.818,362.755 191.667 L 368.510 191.600 368.251 194.132 M297.000 306.663 C 284.946 313.567,263.454 322.246,250.100 325.603 C 249.165 325.839,248.400 326.197,248.400 326.400 C 248.400 326.604,249.165 327.835,250.100 329.136 C 251.035 330.437,252.847 332.964,254.128 334.751 L 256.455 338.000 289.655 338.000 L 322.854 338.000 321.941 336.700 C 321.439 335.985,319.139 332.790,316.832 329.600 C 314.524 326.410,309.774 319.750,306.278 314.800 C 302.781 309.850,299.803 305.685,299.660 305.544 C 299.517 305.404,298.320 305.907,297.000 306.663 M78.718 314.246 C 75.573 318.334,71.920 323.073,70.600 324.778 C 64.471 332.695,60.989 337.294,60.867 337.631 C 60.787 337.851,65.356 338.000,72.146 338.000 L 83.560 338.000 85.462 335.300 C 86.508 333.815,90.297 328.718,93.882 323.973 C 97.467 319.228,100.400 315.224,100.400 315.075 C 100.400 314.926,96.808 313.006,92.418 310.809 L 84.436 306.814 78.718 314.246 " stroke="none" fill="#0c0f1d" fill-rule="evenodd"></path><path id="path1" d="M65.727 63.100 C 70.307 63.164,77.687 63.164,82.127 63.099 C 86.567 63.035,82.820 62.983,73.800 62.983 C 64.780 62.983,61.147 63.035,65.727 63.100 M107.891 63.089 C 108.601 63.177,109.861 63.179,110.691 63.092 C 111.521 63.005,110.940 62.933,109.400 62.931 C 107.860 62.929,107.181 63.000,107.891 63.089 M96.800 134.552 C 18.520 170.859,3.498 244.486,64.405 293.326 C 70.331 298.078,83.096 306.759,84.205 306.791 C 84.763 306.807,100.400 314.851,100.400 315.122 C 100.400 315.297,100.175 315.696,99.900 316.009 C 99.625 316.323,99.806 316.240,100.301 315.826 C 101.194 315.081,101.243 315.090,105.101 316.727 C 117.655 322.053,138.138 327.577,155.044 330.197 L 156.687 330.451 156.939 328.926 C 157.078 328.087,157.193 323.490,157.196 318.711 L 157.200 310.022 154.900 309.391 C 147.820 307.447,142.364 305.704,137.200 303.736 C 129.823 300.925,117.200 294.849,117.200 294.108 C 117.200 293.803,117.044 293.649,116.854 293.767 C 116.129 294.215,102.000 285.250,102.000 284.341 C 102.000 284.128,101.853 284.044,101.673 284.155 C 101.364 284.346,97.056 281.204,96.200 280.162 C 95.980 279.895,94.010 278.027,91.821 276.011 C 50.310 237.767,56.597 183.681,106.591 148.967 C 110.004 146.597,111.564 145.282,111.417 144.900 C 110.841 143.398,102.692 131.910,102.284 132.024 C 102.238 132.036,99.770 133.174,96.800 134.552 M369.200 171.725 C 369.200 171.794,369.785 172.379,370.500 173.025 L 371.800 174.200 370.625 172.900 C 369.530 171.688,369.200 171.416,369.200 171.725 M368.400 185.133 C 368.400 185.447,367.253 185.627,364.900 185.681 L 361.400 185.763 364.763 185.899 C 367.872 186.024,369.386 185.653,368.673 184.940 C 368.523 184.790,368.400 184.877,368.400 185.133 M353.300 186.276 C 353.685 186.376,354.315 186.376,354.700 186.276 C 355.085 186.175,354.770 186.093,354.000 186.093 C 353.230 186.093,352.915 186.175,353.300 186.276 M284.120 191.600 C 284.120 192.810,284.195 193.305,284.287 192.700 C 284.378 192.095,284.378 191.105,284.287 190.500 C 284.195 189.895,284.120 190.390,284.120 191.600 M357.500 191.882 C 357.995 191.978,358.805 191.978,359.300 191.882 C 359.795 191.787,359.390 191.709,358.400 191.709 C 357.410 191.709,357.005 191.787,357.500 191.882 M262.400 204.925 C 262.400 204.994,262.985 205.579,263.700 206.225 L 265.000 207.400 263.825 206.100 C 262.730 204.888,262.400 204.616,262.400 204.925 M270.700 209.482 C 271.195 209.578,272.005 209.578,272.500 209.482 C 272.995 209.387,272.590 209.309,271.600 209.309 C 270.610 209.309,270.205 209.387,270.700 209.482 M285.178 210.700 L 283.800 212.200 285.300 210.822 C 286.696 209.538,286.984 209.200,286.678 209.200 C 286.612 209.200,285.937 209.875,285.178 210.700 M310.305 214.683 C 310.802 214.779,311.522 214.775,311.905 214.675 C 312.287 214.575,311.880 214.496,311.000 214.501 C 310.120 214.505,309.807 214.587,310.305 214.683 M369.105 214.683 C 369.602 214.779,370.322 214.775,370.705 214.675 C 371.087 214.575,370.680 214.496,369.800 214.501 C 368.920 214.505,368.607 214.587,369.105 214.683 M64.100 338.297 C 65.805 338.372,68.595 338.372,70.300 338.297 C 72.005 338.222,70.610 338.161,67.200 338.161 C 63.790 338.161,62.395 338.222,64.100 338.297 M273.330 338.300 C 282.531 338.360,297.471 338.360,306.530 338.300 C 315.588 338.240,308.060 338.191,289.800 338.191 C 271.540 338.191,264.128 338.240,273.330 338.300 " stroke="none" fill="#33e55f" fill-rule="evenodd"></path><path id="path2" d="M0.000 200.000 L 0.000 400.000 200.000 400.000 L 400.000 400.000 400.000 200.000 L 400.000 0.000 200.000 0.000 L 0.000 0.000 0.000 200.000 M320.744 63.021 C 320.988 63.247,321.073 63.134,297.954 93.400 C 291.904 101.320,284.273 111.310,280.997 115.600 C 264.824 136.779,258.270 145.355,240.282 168.874 C 229.567 182.885,220.800 194.442,220.800 194.557 C 220.800 194.672,225.982 202.019,232.315 210.883 C 253.244 240.176,270.522 264.409,280.597 278.600 C 286.063 286.300,290.601 292.681,290.680 292.779 C 290.889 293.037,292.740 291.934,298.400 288.181 C 325.675 270.092,341.176 244.328,341.197 217.054 C 341.200 212.748,341.187 212.690,339.850 210.854 C 336.771 206.625,336.600 206.022,336.600 199.400 L 336.600 193.400 334.878 189.800 C 332.770 185.394,329.191 178.980,327.142 175.936 L 325.618 173.671 323.331 174.268 C 313.598 176.810,312.199 180.590,312.470 203.600 L 312.600 214.600 308.600 214.600 L 304.600 214.600 304.497 191.623 C 304.440 178.986,304.539 168.501,304.718 168.322 C 304.896 168.144,306.712 168.116,308.752 168.261 L 312.461 168.524 312.330 171.263 C 312.259 172.769,312.268 174.001,312.351 174.001 C 312.434 174.000,313.694 173.130,315.151 172.067 C 316.608 171.004,318.475 169.729,319.300 169.234 C 321.310 168.029,321.510 168.374,315.351 162.426 C 304.788 152.225,296.194 146.262,282.091 139.352 C 270.870 133.853,270.387 133.465,271.978 131.231 C 273.007 129.786,273.199 129.806,278.400 131.894 C 296.680 139.232,318.794 154.022,329.800 166.271 C 331.120 167.740,333.848 170.655,335.862 172.748 L 339.523 176.554 339.787 174.177 C 340.319 169.372,339.939 169.799,344.521 168.852 C 363.863 164.852,372.045 168.776,374.861 183.400 C 375.433 186.373,375.450 214.322,374.879 214.866 C 374.726 215.013,373.160 215.013,371.400 214.866 L 368.200 214.600 368.246 211.545 L 368.291 208.491 365.914 210.407 C 362.946 212.798,359.558 214.623,356.755 215.339 L 354.600 215.889 354.350 223.845 C 353.372 254.990,337.733 280.136,306.326 301.061 C 302.828 303.392,300.019 305.426,300.083 305.581 C 300.293 306.088,310.049 319.837,316.646 328.922 C 320.191 333.805,323.015 337.935,322.922 338.100 C 322.829 338.265,307.868 338.400,289.676 338.400 L 256.600 338.399 255.192 336.500 C 254.417 335.455,252.446 332.755,250.811 330.500 C 247.426 325.831,247.973 326.026,242.071 327.379 C 222.618 331.840,192.973 334.043,174.200 332.423 C 155.173 330.781,133.251 326.735,120.200 322.458 C 114.669 320.645,106.390 317.604,103.843 316.449 C 102.340 315.767,100.945 315.310,100.744 315.434 C 100.375 315.663,85.538 335.359,84.349 337.200 L 83.703 338.200 72.409 338.338 C 65.527 338.422,60.966 338.326,60.731 338.091 C 60.486 337.846,62.235 335.271,65.580 330.954 C 68.459 327.239,71.710 323.030,72.807 321.600 C 82.284 309.236,83.931 307.013,83.787 306.779 C 83.696 306.632,81.932 305.503,79.868 304.271 C 55.998 290.027,37.975 269.128,30.651 247.200 C 16.261 204.115,43.560 158.257,98.054 133.976 L 102.569 131.964 103.282 132.882 C 104.598 134.577,111.197 144.328,111.419 144.904 C 111.565 145.285,110.600 146.186,108.519 147.613 C 62.619 179.095,51.466 223.772,79.814 262.600 C 86.865 272.258,100.448 284.970,101.988 283.354 C 102.635 282.676,129.071 248.117,145.404 226.600 C 148.911 221.980,153.637 215.770,155.907 212.800 C 158.177 209.830,159.961 207.130,159.870 206.800 C 159.728 206.279,131.998 167.334,107.387 133.087 C 102.994 126.975,98.320 120.452,97.000 118.592 C 95.680 116.732,90.820 109.954,86.200 103.530 C 81.580 97.106,75.640 88.845,73.000 85.173 C 70.360 81.501,65.725 75.055,62.700 70.849 C 59.675 66.643,57.200 63.112,57.200 63.001 C 57.200 62.890,72.005 62.800,90.100 62.801 L 123.000 62.802 124.649 64.301 C 125.557 65.125,129.141 69.760,132.614 74.600 C 136.087 79.440,140.039 84.930,141.396 86.800 C 142.753 88.670,145.758 92.810,148.074 96.000 C 150.390 99.190,157.953 109.630,164.880 119.200 C 171.806 128.770,181.131 141.640,185.601 147.800 C 204.191 173.418,206.059 176.069,205.871 176.559 C 205.690 177.031,183.704 206.189,169.731 224.489 C 163.266 232.957,153.886 245.267,145.873 255.800 C 143.028 259.540,136.099 268.720,130.475 276.200 C 124.850 283.680,119.563 290.671,118.724 291.736 C 116.669 294.346,116.391 294.020,123.700 297.575 C 148.521 309.645,171.309 314.531,203.000 314.578 C 218.550 314.601,228.355 313.889,235.900 312.188 C 237.253 311.883,237.091 311.519,233.274 306.259 C 231.335 303.586,226.267 296.540,222.011 290.600 C 217.756 284.660,211.814 276.380,208.807 272.200 C 205.800 268.020,199.591 259.380,195.010 253.000 C 190.429 246.620,186.010 240.500,185.191 239.400 C 183.075 236.561,175.416 225.904,175.035 225.270 C 174.678 224.677,172.987 226.942,205.241 184.800 C 217.449 168.850,228.949 153.820,230.797 151.400 C 232.645 148.980,235.891 144.750,238.011 142.000 C 240.130 139.250,244.198 133.940,247.049 130.200 C 268.621 101.904,297.087 64.809,297.915 63.915 C 298.818 62.941,299.251 62.815,302.160 62.676 C 305.549 62.513,320.495 62.792,320.744 63.021 M211.200 115.997 C 228.344 117.834,236.522 119.063,244.691 121.031 C 249.768 122.253,249.413 122.027,248.632 123.539 C 247.162 126.381,246.292 126.472,236.450 124.808 C 209.993 120.336,194.983 120.629,189.665 125.722 C 184.615 130.557,185.853 135.926,195.504 151.035 C 199.086 156.644,202.000 161.635,202.000 162.162 C 202.000 163.355,194.529 154.037,179.740 134.400 C 175.349 128.570,170.613 122.314,169.215 120.497 C 167.816 118.681,166.748 117.119,166.840 117.027 C 167.040 116.827,177.904 115.665,181.600 115.448 C 186.453 115.164,206.979 115.544,211.200 115.997 M279.268 168.389 C 297.529 175.328,296.769 209.619,278.234 215.007 C 272.669 216.625,266.561 215.186,261.503 211.067 C 260.243 210.040,259.119 209.200,259.006 209.200 C 258.893 209.200,258.800 214.330,258.800 220.600 L 258.800 232.000 255.245 232.000 L 251.690 232.000 251.420 222.300 C 251.272 216.965,251.207 202.700,251.275 190.600 L 251.400 168.600 255.342 168.485 L 259.284 168.370 258.996 171.237 C 258.669 174.498,258.522 174.475,261.948 171.692 C 267.138 167.476,273.614 166.241,279.268 168.389 M267.200 174.831 C 255.388 180.172,256.244 205.141,268.359 208.664 C 279.312 211.848,286.798 199.097,282.956 183.802 C 281.023 176.104,273.658 171.911,267.200 174.831 M348.200 174.757 C 344.003 175.866,340.400 177.297,340.400 177.855 C 340.400 178.128,341.333 180.355,342.474 182.806 L 344.548 187.261 345.974 186.990 C 349.837 186.255,352.859 185.992,360.300 185.743 C 365.725 185.562,368.398 185.329,368.395 185.037 C 368.305 176.708,358.912 171.927,348.200 174.757 M358.105 192.021 C 352.943 192.359,348.958 193.021,348.600 193.600 C 348.482 193.791,349.181 196.344,350.154 199.274 C 351.127 202.203,352.234 205.725,352.614 207.100 C 353.393 209.918,353.464 209.949,356.827 208.963 C 364.022 206.852,367.618 202.068,368.075 194.000 L 368.200 191.800 365.600 191.751 C 364.170 191.724,360.797 191.845,358.105 192.021 " stroke="none" fill="#ffffff" fill-rule="evenodd"></path><path id="path3" d="M306.307 62.690 C 307.026 62.779,308.106 62.777,308.707 62.686 C 309.308 62.595,308.720 62.522,307.400 62.524 C 306.080 62.526,305.588 62.601,306.307 62.690 M310.900 62.676 C 311.285 62.776,311.915 62.776,312.300 62.676 C 312.685 62.575,312.370 62.493,311.600 62.493 C 310.830 62.493,310.515 62.575,310.900 62.676 M181.600 115.448 C 177.904 115.665,167.040 116.827,166.840 117.027 C 166.748 117.119,167.816 118.681,169.215 120.497 C 170.613 122.314,175.349 128.570,179.740 134.400 C 194.529 154.037,202.000 163.355,202.000 162.162 C 202.000 161.635,199.086 156.644,195.504 151.035 C 185.853 135.926,184.615 130.557,189.665 125.722 C 194.983 120.629,209.993 120.336,236.450 124.808 C 246.292 126.472,247.162 126.381,248.632 123.539 C 249.413 122.027,249.768 122.253,244.691 121.031 C 236.522 119.063,228.344 117.834,211.200 115.997 C 206.979 115.544,186.453 115.164,181.600 115.448 M271.978 131.231 C 270.390 133.461,270.852 133.827,282.383 139.489 C 289.858 143.159,292.851 144.450,292.997 144.067 C 293.109 143.774,293.200 142.481,293.200 141.192 L 293.200 138.850 287.500 136.033 C 281.942 133.287,276.088 130.799,273.928 130.264 C 273.035 130.043,272.709 130.205,271.978 131.231 M304.583 198.000 C 304.583 207.130,304.635 210.865,304.700 206.300 C 304.764 201.735,304.764 194.265,304.700 189.700 C 304.635 185.135,304.583 188.870,304.583 198.000 M127.600 299.800 C 128.150 300.114,128.780 300.372,129.000 300.372 C 129.220 300.372,128.950 300.114,128.400 299.800 C 127.850 299.486,127.220 299.228,127.000 299.228 C 126.780 299.228,127.050 299.486,127.600 299.800 M250.000 309.426 C 244.331 311.041,237.568 312.195,237.205 311.608 C 236.959 311.210,236.863 311.210,236.730 311.609 C 236.631 311.906,234.788 312.390,232.182 312.804 C 211.549 316.077,182.466 315.163,161.247 310.575 C 158.735 310.032,156.586 309.680,156.473 309.794 C 156.359 309.907,156.491 310.000,156.766 310.000 C 157.155 310.000,157.242 312.275,157.157 320.300 L 157.049 330.600 161.024 331.079 C 176.355 332.925,193.909 333.453,206.000 332.432 C 224.786 330.845,241.004 328.217,251.828 325.007 C 252.500 324.808,254.800 313.989,254.800 311.028 C 254.800 307.937,254.995 308.002,250.000 309.426 " stroke="none" fill="#37e3dc" fill-rule="evenodd"></path><path id="path4" d="M114.482 63.096 C 115.958 63.173,118.478 63.173,120.082 63.097 C 121.687 63.021,120.480 62.958,117.400 62.958 C 114.320 62.957,113.007 63.019,114.482 63.096 M293.200 141.367 C 293.200 142.559,293.100 143.795,292.978 144.113 C 292.825 144.513,294.098 145.604,297.078 147.628 C 306.536 154.054,321.164 166.875,320.628 168.271 C 320.471 168.679,320.594 168.726,321.109 168.456 C 322.247 167.859,329.928 166.709,330.484 167.052 C 331.430 167.636,324.647 161.022,321.266 158.063 C 314.981 152.562,305.792 146.134,296.961 141.061 C 292.978 138.773,293.200 138.755,293.200 141.367 M355.305 167.487 C 355.914 167.579,356.814 167.577,357.305 167.482 C 357.797 167.387,357.300 167.311,356.200 167.314 C 355.100 167.317,354.697 167.395,355.305 167.487 M305.300 168.276 C 305.685 168.376,306.315 168.376,306.700 168.276 C 307.085 168.175,306.770 168.093,306.000 168.093 C 305.230 168.093,304.915 168.175,305.300 168.276 M331.594 168.984 C 331.791 169.502,332.076 171.022,332.228 172.363 C 332.547 175.183,332.519 175.198,328.800 174.200 C 325.498 173.314,325.427 173.386,327.111 175.900 C 330.709 181.269,336.788 193.004,336.798 194.600 C 336.802 195.258,336.934 195.186,337.540 194.200 C 338.597 192.477,343.888 187.601,344.707 187.594 C 345.187 187.590,345.251 187.493,344.914 187.279 C 344.437 186.976,340.628 179.174,340.344 177.918 C 340.265 177.566,338.183 175.201,335.718 172.660 C 333.253 170.120,331.397 168.466,331.594 168.984 M251.389 195.400 C 251.389 210.140,251.439 216.112,251.500 208.671 C 251.561 201.230,251.561 189.170,251.500 181.871 C 251.439 174.572,251.389 180.660,251.389 195.400 M304.563 175.200 C 304.563 178.830,304.623 180.315,304.698 178.500 C 304.772 176.685,304.772 173.715,304.698 171.900 C 304.623 170.085,304.563 171.570,304.563 175.200 M358.905 185.887 C 359.514 185.979,360.414 185.977,360.905 185.882 C 361.397 185.787,360.900 185.711,359.800 185.714 C 358.700 185.717,358.297 185.795,358.905 185.887 M375.355 193.800 C 375.356 196.660,375.420 197.778,375.497 196.283 C 375.574 194.789,375.574 192.449,375.496 191.083 C 375.418 189.718,375.355 190.940,375.355 193.800 M346.339 194.968 C 342.897 198.360,342.775 203.267,346.056 206.284 C 347.443 207.559,353.099 210.079,354.126 209.879 C 354.986 209.712,354.987 209.708,354.153 209.654 C 353.467 209.610,353.173 209.122,352.614 207.100 C 352.234 205.725,351.127 202.203,350.154 199.274 C 349.181 196.344,348.489 193.779,348.616 193.574 C 349.215 192.604,347.951 193.378,346.339 194.968 M374.948 208.400 C 374.948 210.710,375.014 211.655,375.095 210.500 C 375.176 209.345,375.176 207.455,375.095 206.300 C 375.014 205.145,374.948 206.090,374.948 208.400 M312.544 210.800 C 312.544 212.890,312.612 213.745,312.694 212.700 C 312.776 211.655,312.776 209.945,312.694 208.900 C 312.612 207.855,312.544 208.710,312.544 210.800 M340.700 211.991 C 342.278 213.787,340.808 228.749,338.151 237.939 C 332.242 258.374,313.071 280.935,292.000 292.248 C 291.230 292.662,290.510 293.113,290.400 293.250 C 290.100 293.626,281.753 297.760,277.095 299.840 C 272.730 301.789,262.031 305.770,257.400 307.169 L 254.600 308.015 254.712 310.908 C 254.797 313.086,254.496 315.194,253.492 319.451 L 252.160 325.103 253.180 324.773 C 274.170 317.997,284.682 313.652,297.100 306.623 C 298.475 305.844,299.600 305.292,299.600 305.394 C 299.600 305.831,313.530 296.172,317.291 293.127 C 341.584 273.462,353.492 251.151,354.348 223.699 L 354.600 215.599 352.879 215.599 C 349.420 215.601,342.935 213.680,341.000 212.082 C 340.560 211.719,340.425 211.677,340.700 211.991 M74.700 338.293 C 75.635 338.377,77.165 338.377,78.100 338.293 C 79.035 338.209,78.270 338.140,76.400 338.140 C 74.530 338.140,73.765 338.209,74.700 338.293 " stroke="none" fill="#4e69fb" fill-rule="evenodd"></path></g></svg>